<?xml version="1.0" standalone="no"?>
<!DOCTYPE svg PUBLIC "-//W3C//DTD SVG 20010904//EN"
 "http://www.w3.org/TR/2001/REC-SVG-20010904/DTD/svg10.dtd">
<svg version="1.0" xmlns="http://www.w3.org/2000/svg"
 width="512.000000pt" height="512.000000pt" viewBox="0 0 512.000000 512.000000"
 preserveAspectRatio="xMidYMid meet">
<metadata>
Created by potrace 1.14, written by Peter Selinger 2001-2017
</metadata>
<g transform="translate(0.000000,512.000000) scale(0.100000,-0.100000)"
fill="#000000" stroke="none">
<path d="M2360 4265 c-5 -14 -14 -25 -20 -25 -6 0 -9 -4 -6 -8 3 -5 -3 -18
-12 -28 -10 -10 -20 -23 -21 -29 -10 -29 -25 -55 -33 -55 -4 0 -8 -4 -8 -9 0
-10 -53 -100 -87 -148 -13 -17 -23 -34 -23 -37 0 -3 -13 -25 -29 -48 -16 -24
-27 -46 -25 -49 2 -4 -3 -9 -11 -13 -8 -3 -15 -10 -15 -15 0 -5 -43 -77 -95
-160 -52 -83 -95 -155 -95 -161 0 -6 -7 -13 -15 -16 -8 -4 -12 -10 -9 -15 3
-5 0 -9 -6 -9 -6 0 -8 -4 -5 -10 3 -5 1 -10 -5 -10 -6 0 -8 -4 -5 -10 3 -5 1
-10 -5 -10 -6 0 -15 -10 -20 -22 -13 -31 -33 -61 -45 -70 -5 -4 -6 -8 -2 -8 5
0 -6 -18 -23 -40 -17 -22 -29 -40 -25 -40 3 0 -6 -16 -21 -35 -14 -19 -22 -35
-18 -35 5 0 4 -4 -1 -8 -11 -7 -85 -118 -85 -127 0 -9 -94 -150 -102 -153 -4
-2 -6 -8 -2 -13 3 -5 0 -9 -5 -9 -6 0 -11 -5 -11 -12 0 -6 -11 -26 -25 -43
-13 -18 -21 -35 -18 -39 3 -3 -2 -8 -11 -12 -9 -3 -16 -12 -16 -19 0 -7 -7
-18 -15 -25 -8 -7 -12 -16 -9 -21 3 -5 -1 -9 -8 -9 -14 0 -54 40 -40 40 4 0 3
4 -3 8 -15 10 -75 101 -75 112 0 6 -4 10 -10 10 -5 0 -10 5 -10 10 0 6 -5 16
-11 23 -5 7 -38 55 -72 107 -34 52 -67 101 -74 108 -7 7 -13 19 -13 25 0 7
-11 24 -25 39 -14 15 -25 32 -25 38 0 5 -7 10 -17 10 -9 0 -14 -3 -11 -6 4 -3
-20 -48 -52 -100 -33 -52 -57 -94 -54 -94 3 0 -1 -7 -8 -15 -29 -32 -38 -45
-33 -45 3 0 -8 -20 -24 -44 -17 -24 -31 -50 -33 -57 -2 -8 -6 -16 -9 -19 -13
-11 -118 -190 -111 -190 4 0 -1 -5 -11 -11 -9 -6 -15 -14 -12 -20 4 -5 2 -9
-3 -9 -5 0 -15 -13 -22 -30 -7 -16 -17 -30 -23 -30 -6 0 -8 -3 -4 -6 3 -4 -7
-26 -23 -50 -17 -23 -30 -47 -30 -53 0 -6 -4 -11 -8 -11 -5 0 -14 -16 -22 -35
-8 -19 -17 -35 -21 -35 -4 0 -11 -10 -15 -22 -4 -13 -18 -38 -32 -55 -13 -18
-20 -33 -16 -33 5 0 4 -4 -2 -8 -13 -9 -134 -210 -134 -222 0 -6 -4 -10 -10
-10 -5 0 -10 -7 -10 -15 0 -8 -4 -15 -10 -15 -5 0 -10 -6 -10 -14 0 -7 -9 -25
-21 -40 -11 -14 -17 -26 -12 -26 4 0 1 -6 -8 -13 -8 -7 -23 -28 -33 -47 -41
-78 -47 -88 -61 -100 -8 -7 -12 -16 -9 -21 3 -5 0 -9 -5 -9 -6 0 -11 -6 -11
-14 0 -7 -7 -19 -15 -26 -8 -7 -12 -16 -9 -21 3 -5 1 -9 -5 -9 -5 0 -13 -10
-17 -22 -4 -13 -14 -28 -22 -34 -12 -9 -12 -13 -2 -19 8 -5 11 -4 6 3 -3 6 3
13 14 17 11 4 18 11 15 16 -4 5 -1 9 4 9 15 0 51 37 43 44 -3 3 0 6 6 6 12 0
182 168 182 181 0 5 3 8 8 7 4 -1 140 131 304 295 163 163 299 297 302 297 8
0 21 -11 69 -55 18 -16 54 -49 79 -72 25 -23 43 -45 40 -49 -4 -4 -2 -4 4 -1
7 4 26 -9 43 -28 17 -20 31 -34 31 -32 0 3 24 -19 54 -47 112 -105 109 -103
134 -90 13 6 24 15 24 20 1 5 28 33 60 63 32 30 58 58 58 63 0 4 16 30 35 57
19 26 35 53 35 60 0 6 4 11 9 11 19 0 24 49 25 230 l1 184 30 6 c17 3 135 5
263 5 193 0 232 2 232 14 0 8 2 12 5 9 3 -3 21 9 39 26 18 17 66 60 106 96 40
36 88 79 106 95 75 68 108 95 116 95 5 0 24 -16 44 -35 19 -19 39 -35 44 -35
6 0 10 -7 10 -17 0 -9 3 -14 6 -11 3 3 20 -9 38 -28 18 -19 38 -34 45 -34 6 0
11 -7 11 -15 0 -8 4 -15 8 -15 5 0 27 -17 49 -37 22 -21 60 -56 84 -77 110
-98 136 -125 130 -132 -3 -4 -1 -4 5 -1 6 4 23 -6 36 -21 14 -15 58 -56 98
-92 39 -36 87 -80 106 -97 18 -18 38 -33 44 -33 6 0 8 -4 5 -10 -3 -5 -2 -10
2 -10 5 0 29 -19 54 -42 84 -79 190 -173 198 -176 11 -4 251 236 251 250 0 6
3 9 6 5 7 -7 54 41 54 55 0 5 5 6 11 3 6 -4 13 2 16 14 3 12 10 21 17 21 6 0
22 16 36 34 14 19 28 32 33 29 4 -2 7 0 7 6 0 6 9 15 19 21 17 9 28 2 74 -42
125 -121 210 -198 219 -198 5 0 6 -4 3 -10 -3 -5 -2 -10 4 -10 5 0 33 -22 62
-50 29 -27 56 -50 61 -50 4 0 8 -7 8 -15 0 -8 4 -15 8 -15 5 0 33 -23 63 -51
30 -28 79 -76 111 -105 31 -30 62 -54 69 -54 7 0 10 -3 6 -6 -3 -3 20 -29 51
-57 31 -29 76 -71 100 -94 25 -24 49 -43 54 -43 5 0 6 -4 3 -10 -3 -5 -2 -10
4 -10 6 0 58 -46 116 -103 58 -57 105 -101 105 -98 0 3 5 -1 11 -9 8 -12 9
-11 6 5 -2 11 -9 19 -15 18 -7 -2 -12 5 -12 15 0 10 -9 28 -20 40 -11 12 -20
26 -20 32 0 5 -4 10 -10 10 -5 0 -10 7 -10 15 0 8 -4 15 -10 15 -5 0 -10 7
-10 15 0 8 -4 15 -8 15 -4 0 -16 14 -26 32 -11 17 -26 40 -35 50 -9 10 -16 22
-15 26 0 4 -10 18 -23 32 -13 14 -26 33 -29 43 -3 9 -10 17 -15 17 -5 0 -9 7
-9 15 0 8 -4 15 -10 15 -5 0 -10 7 -10 15 0 7 -6 18 -12 22 -13 8 -32 35 -45
63 -4 8 -12 21 -19 27 -7 7 -22 29 -35 50 -13 21 -25 40 -28 43 -17 15 -54 75
-54 87 0 7 -2 11 -5 8 -6 -5 -62 71 -62 85 0 5 -3 10 -8 10 -4 0 -16 16 -26
35 -11 19 -23 35 -28 35 -5 0 -7 4 -4 9 4 5 2 11 -2 13 -5 1 -42 53 -82 113
-40 61 -77 112 -81 115 -4 3 -9 12 -11 19 -2 8 -9 21 -16 30 -47 56 -62 77
-62 88 0 6 -3 13 -7 15 -13 5 -73 95 -73 108 0 6 -4 9 -8 6 -4 -2 -13 8 -20
23 -7 15 -21 37 -32 49 -12 12 -18 22 -15 22 4 0 0 7 -7 15 -29 32 -39 45 -33
45 3 0 -6 12 -20 27 -14 15 -25 33 -25 40 0 7 -3 13 -7 13 -5 0 -26 28 -48 63
-22 34 -45 66 -52 70 -7 4 -13 15 -13 22 0 8 -4 15 -10 15 -5 0 -10 7 -10 15
0 8 -4 15 -8 15 -5 0 -15 12 -23 27 -26 51 -40 63 -56 48 -7 -8 -13 -17 -13
-20 0 -4 -9 -19 -20 -35 -11 -15 -17 -30 -13 -34 3 -3 1 -6 -5 -6 -6 0 -21
-19 -33 -42 -12 -23 -28 -48 -35 -56 -8 -7 -14 -19 -14 -26 0 -7 -11 -25 -24
-39 -13 -14 -21 -28 -18 -31 3 -3 -2 -14 -10 -23 -21 -25 -89 -141 -88 -149 1
-4 -2 -10 -7 -13 -5 -3 -20 -25 -33 -48 -13 -24 -29 -43 -35 -43 -13 0 -45 36
-45 50 0 6 -4 10 -10 10 -5 0 -10 6 -10 14 0 8 -4 16 -8 18 -4 2 -42 50 -85
108 -43 58 -84 113 -92 123 -8 9 -15 22 -15 27 0 6 -4 10 -8 10 -5 0 -17 16
-28 35 -10 19 -25 35 -33 35 -8 0 -12 3 -8 6 6 6 -41 76 -55 82 -5 2 -8 10 -8
18 0 8 -4 14 -10 14 -5 0 -10 5 -10 10 0 6 -7 18 -16 28 -40 44 -64 78 -64 90
0 7 -4 10 -10 7 -5 -3 -10 1 -10 9 0 8 -8 20 -17 25 -10 6 -14 11 -10 11 5 0
2 7 -5 15 -19 21 -29 34 -73 95 -22 30 -43 57 -47 58 -5 2 -8 8 -8 13 0 8 -20
35 -48 65 -7 8 -11 14 -8 14 4 0 -6 13 -20 29 -14 16 -26 33 -26 38 -1 4 -6
13 -13 18 -6 6 -29 35 -51 65 -21 30 -42 57 -46 58 -5 2 -8 8 -8 13 0 5 -8 18
-17 28 -30 33 -43 50 -43 56 0 4 -6 12 -12 19 -7 7 -22 25 -33 39 -25 33 -33
34 -45 2z"/>
<path d="M2485 2894 c-28 -20 -120 -101 -178 -156 -27 -27 -51 -48 -53 -48 -2
0 -22 -17 -43 -37 -75 -72 -182 -168 -198 -177 -13 -7 -15 -5 -10 8 4 9 3 26
-2 39 -5 12 -5 31 -1 42 15 39 -5 45 -146 45 -74 0 -135 -3 -135 -7 -1 -5 -2
-97 -3 -206 -1 -176 -3 -200 -18 -211 -10 -7 -16 -15 -15 -17 2 -2 -5 -12 -15
-21 -10 -10 -18 -17 -18 -15 0 2 -63 -58 -140 -134 -77 -75 -140 -139 -140
-141 0 -3 45 -5 99 -4 64 0 97 4 94 11 -3 5 0 5 7 -2 8 -8 20 -9 36 -3 13 5
24 6 24 1 0 -4 7 -8 15 -8 8 0 12 4 9 9 -3 5 5 6 18 3 19 -5 34 3 71 38 26 25
47 44 47 43 0 -2 36 32 80 75 44 42 80 76 80 75 0 -1 33 30 74 68 41 39 118
112 172 161 53 50 128 120 166 156 37 37 68 64 68 61 0 -3 11 7 25 22 28 30
20 34 118 -57 29 -27 80 -74 115 -105 35 -31 91 -83 125 -114 34 -32 65 -58
69 -58 5 0 8 -7 8 -17 0 -9 3 -14 6 -10 4 3 24 -12 46 -33 21 -22 41 -40 43
-40 3 0 22 -17 44 -37 87 -86 153 -143 162 -143 6 0 7 -4 4 -10 -3 -5 -2 -10
3 -10 4 0 23 -14 40 -31 l32 -32 153 1 c216 0 215 0 196 15 -15 11 -130 115
-219 197 -20 19 -75 69 -120 110 -46 41 -100 91 -121 110 -21 19 -70 64 -109
100 -40 36 -100 90 -133 120 -33 30 -83 76 -110 103 -26 26 -50 47 -53 47 -3
0 -42 35 -181 168 -19 17 -38 32 -42 32 -5 0 -12 9 -17 19 -8 18 -11 18 -29 5z"/>
<path d="M2343 2126 c-4 -6 -7 -39 -8 -73 l-1 -63 78 0 c71 0 77 1 73 20 -2
11 0 20 6 20 5 0 9 -9 9 -20 0 -19 5 -21 73 -18 l72 3 1 68 c0 37 -2 68 -5 68
-29 7 -141 2 -142 -6 -1 -5 -2 -24 -3 -42 0 -17 -4 -34 -8 -38 -3 -4 -6 15 -5
41 l2 48 -68 1 c-38 1 -71 -3 -74 -9z"/>
<path d="M2343 1971 c-11 -8 -10 -127 1 -138 14 -14 128 -11 133 4 3 7 9 13
15 13 5 0 6 -4 3 -10 -7 -12 -8 -12 78 -14 37 -1 67 1 68 4 5 25 6 140 1 141
-49 7 -133 5 -139 -4 -3 -6 -6 -30 -6 -54 1 -24 -3 -45 -7 -48 -4 -2 -7 21 -6
53 l1 57 -67 1 c-37 0 -71 -2 -75 -5z"/>
<path d="M1758 1652 c-10 -2 -18 -8 -18 -13 0 -6 -4 -8 -8 -5 -16 9 -42 -34
-42 -70 0 -19 3 -33 8 -31 4 3 13 -1 19 -9 8 -8 9 -15 3 -19 -6 -4 -8 -11 -5
-16 20 -31 24 -182 6 -203 -18 -21 -24 -20 -40 5 -11 19 -11 21 2 16 15 -6 37
10 37 26 0 5 -6 7 -14 4 -8 -3 -16 -1 -19 6 -5 16 -42 -28 -42 -51 0 -23 45
-62 71 -62 12 0 33 11 47 24 14 13 29 21 33 17 4 -3 4 0 0 7 -4 6 -4 18 1 25
11 17 11 68 1 90 -5 10 -5 17 2 18 57 7 87 29 108 78 17 42 18 52 7 79 -8 16
-11 33 -8 36 4 3 2 6 -4 6 -5 0 -20 9 -33 20 -13 11 -30 21 -39 21 -9 1 -25 2
-36 3 -11 1 -28 0 -37 -2z m-5 -66 c-10 -13 -20 -20 -22 -14 -1 5 5 16 15 23
26 20 28 18 7 -9z m92 -14 c-6 -8 -35 12 -35 24 0 11 4 10 18 -3 10 -10 18
-19 17 -21z m5 -40 c0 -37 -35 -81 -52 -64 -7 7 -8 12 -2 12 5 0 2 4 -6 10
-12 7 -10 12 10 31 14 11 24 25 23 30 -2 5 4 9 12 9 10 0 15 -10 15 -28z"/>
<path d="M2850 1652 c-8 -2 -22 -6 -30 -8 -8 -3 -17 -5 -20 -5 -3 -1 -9 -4
-15 -9 -5 -4 -33 -7 -62 -5 -39 2 -57 -2 -71 -16 -11 -10 -22 -16 -25 -13 -7
8 -18 -46 -12 -56 4 -6 1 -10 -5 -10 -18 0 23 -38 45 -41 40 -6 71 9 71 35 0
33 -26 48 -51 29 -14 -11 -16 -17 -7 -20 13 -5 7 -23 -9 -23 -6 0 -8 4 -4 9 3
5 1 12 -5 16 -7 4 -6 11 3 19 20 21 54 36 62 28 3 -4 12 -7 18 -7 6 0 14 -15
18 -32 4 -22 3 -33 -5 -33 -7 0 -7 -3 -1 -8 12 -8 14 -22 19 -114 2 -39 0 -68
-6 -68 -5 0 -7 -4 -4 -9 7 -10 -17 -21 -45 -21 -11 0 -17 5 -14 10 3 6 2 10
-4 10 -6 0 -8 7 -4 16 5 14 8 15 17 3 15 -20 46 -12 46 11 0 27 -22 40 -56 31
-19 -5 -30 -15 -32 -29 -2 -12 -7 -20 -12 -17 -15 9 10 -53 26 -66 17 -14 94
-20 94 -7 0 4 7 8 15 8 8 0 15 5 15 11 0 6 7 18 16 26 11 11 15 29 12 55 -2
22 1 38 7 38 7 0 7 3 0 8 -11 8 -10 4 -19 90 -4 34 -3 62 1 63 99 7 127 23
113 67 -1 4 -2 11 -1 15 1 5 -3 6 -9 2 -5 -3 -10 -2 -10 3 0 11 -39 20 -60 14z
m40 -32 c0 -5 -15 -10 -32 -10 -25 0 -29 3 -18 10 20 13 50 13 50 0z"/>
<path d="M2308 1634 c-37 -20 -62 -69 -52 -103 4 -14 7 -29 6 -33 -1 -5 5 -8
13 -8 9 0 15 -10 16 -27 3 -74 7 -111 12 -120 3 -5 1 -15 -5 -23 -8 -13 -9
-12 -5 1 4 12 -1 18 -17 21 -35 7 -63 -8 -70 -36 -6 -23 10 -74 23 -77 77 -17
123 14 136 91 3 19 8 36 10 38 2 2 0 15 -5 28 -7 17 -6 23 3 21 7 -1 29 -35
49 -76 21 -40 46 -81 57 -90 27 -23 106 -27 115 -6 4 11 1 16 -12 14 -9 -1
-22 -1 -29 0 -11 1 -54 66 -57 86 -1 6 -5 16 -9 23 -5 6 -5 17 -1 24 4 6 3 8
-3 5 -5 -4 -16 4 -23 17 -11 21 -10 27 10 48 31 33 44 58 29 58 -8 0 -8 4 -1
13 7 8 7 18 2 27 -5 8 -6 18 -4 22 3 4 0 8 -7 8 -7 0 -10 3 -6 6 6 7 -20 33
-51 52 -29 16 -91 15 -124 -4z m100 -62 c38 -39 23 -112 -22 -112 -28 0 -30
28 -3 48 32 25 12 81 -28 77 -14 -2 -27 0 -29 4 -3 4 10 7 27 7 20 0 40 -9 55
-24z m-88 1 c0 -3 -6 -11 -14 -19 -13 -12 -15 -12 -13 4 1 15 27 29 27 15z
m50 -33 c0 -5 -5 -10 -11 -10 -5 0 -7 5 -4 10 3 6 8 10 11 10 2 0 4 -4 4 -10z
m-115 -240 c-3 -5 3 -10 14 -10 12 0 21 -4 21 -10 0 -5 -11 -10 -25 -10 -18 0
-25 5 -25 20 0 11 5 20 11 20 5 0 7 -4 4 -10z"/>
<path d="M1569 1625 c-4 -3 -19 -8 -35 -11 -16 -3 -36 -12 -45 -20 -8 -8 -20
-14 -26 -14 -5 0 -18 -15 -28 -34 -11 -19 -24 -32 -29 -29 -6 4 -8 3 -4 -1 3
-4 -2 -31 -12 -59 -15 -45 -17 -72 -11 -133 5 -49 90 -69 149 -34 18 11 38 18
43 14 15 -9 61 5 54 16 -3 6 1 10 10 10 9 0 14 4 11 9 -4 5 -1 11 5 13 7 2 10
10 8 17 -4 11 -8 10 -21 -3 -36 -35 -41 -18 -21 69 15 66 4 94 -33 87 -14 -2
-23 -7 -20 -10 3 -2 0 -14 -7 -26 -6 -11 -13 -37 -14 -56 -5 -73 -7 -79 -36
-91 -23 -10 -31 -9 -44 4 -17 17 -20 94 -4 124 5 10 16 34 26 53 9 19 28 43
41 53 25 18 25 18 18 -7 -5 -21 -2 -26 20 -32 28 -7 52 11 50 36 -3 35 -5 40
-18 40 -8 0 -16 5 -18 11 -2 5 -6 8 -9 4z m15 -60 c-4 -8 -7 -15 -9 -15 -2 0
-5 7 -9 15 -3 9 0 15 9 15 9 0 12 -6 9 -15z"/>
<path d="M3279 1618 c-13 -5 -31 -15 -39 -23 -16 -14 -60 -10 -60 5 0 11 -32
7 -47 -5 -7 -5 -19 -15 -27 -22 -11 -10 -18 -7 -32 13 -24 31 -77 33 -102 3
-9 -12 -22 -27 -29 -33 -7 -8 -8 -18 -3 -27 5 -7 5 -18 -1 -25 -11 -13 9 -33
40 -39 13 -2 26 4 36 18 14 21 15 21 16 2 0 -11 2 -32 3 -47 1 -16 -1 -28 -4
-28 -10 0 -7 -105 4 -112 7 -5 6 -8 -3 -8 -11 0 -9 -4 4 -14 23 -16 55 -5 55
19 0 8 3 15 8 15 4 0 7 42 7 93 -1 50 3 100 7 110 9 18 57 24 59 7 1 -5 2 -16
3 -22 1 -7 -2 -29 -7 -48 -17 -64 -15 -144 5 -165 10 -10 18 -14 18 -8 0 6 9
13 20 16 14 4 20 14 21 34 0 15 2 37 4 48 10 63 13 115 5 120 -4 3 -6 14 -3
25 6 22 38 44 52 36 9 -6 7 -65 -5 -106 -13 -48 -16 -131 -5 -144 14 -16 61
-27 61 -14 0 5 4 7 10 3 5 -3 15 6 23 21 l14 27 18 -31 c28 -47 96 -57 145
-22 16 11 35 17 45 14 21 -9 63 14 71 38 3 10 10 16 15 13 5 -3 6 2 2 11 -6
15 -8 15 -25 -6 -10 -13 -21 -21 -23 -18 -10 9 -4 98 6 98 8 0 3 79 -5 87 -3
4 -6 1 -6 -6 0 -7 -4 -9 -10 -6 -15 9 -12 25 4 25 9 0 12 10 10 32 -2 17 -6
33 -8 35 -9 9 -66 21 -66 13 0 -7 -44 -23 -46 -17 -2 5 -61 -60 -75 -83 -18
-28 -37 -84 -45 -127 -3 -15 -12 -33 -20 -40 -8 -6 -15 -14 -15 -17 1 -3 -2
-6 -6 -6 -12 0 -10 41 3 82 7 20 10 39 7 42 -4 3 0 6 8 6 11 0 11 2 -1 10 -8
5 -10 10 -4 10 11 0 12 71 0 108 -4 12 -14 22 -22 22 -8 0 -14 4 -14 8 0 11
-21 11 -51 0z m281 -58 c-8 -15 -8 -20 -1 -16 6 4 11 2 11 -3 0 -6 7 -11 15
-11 8 0 15 -4 15 -10 0 -5 -4 -10 -9 -10 -17 0 -27 -46 -30 -143 -1 -10 -5
-16 -10 -13 -5 3 -11 -1 -15 -9 -7 -18 -37 -20 -54 -3 -13 13 -17 100 -5 112
7 6 13 29 15 53 1 7 5 10 10 7 4 -3 8 2 8 10 0 15 51 69 58 62 2 -3 -2 -14 -8
-26z m50 16 c0 -11 -19 -15 -25 -6 -3 5 1 10 9 10 9 0 16 -2 16 -4z m-600 -27
c0 -5 6 -7 13 -3 6 4 9 3 4 -1 -4 -5 -18 -9 -31 -10 -19 0 -22 2 -14 12 13 16
28 17 28 2z m-12 -46 c-6 -7 -14 -10 -19 -7 -15 9 -10 20 10 20 15 0 17 -3 9
-13z"/>
<path d="M2062 1605 c-12 -9 -22 -13 -22 -10 0 3 -11 -5 -24 -17 -13 -13 -22
-26 -20 -29 2 -4 -3 -10 -11 -13 -14 -5 -28 -31 -43 -76 -8 -26 -14 -165 -6
-158 4 5 14 -1 21 -12 12 -16 24 -20 59 -19 24 2 44 7 44 13 0 5 3 6 7 3 3 -4
13 -1 21 5 8 7 30 13 48 14 35 1 74 33 74 61 0 20 -17 15 -23 -7 -3 -11 -10
-20 -15 -20 -14 0 -20 30 -11 55 4 11 10 41 13 67 5 36 3 47 -9 52 -8 3 -15
13 -15 21 0 10 5 13 12 9 7 -4 8 -3 4 4 -4 7 -2 12 4 12 7 0 5 10 -4 28 -17
33 -68 41 -104 17z m38 -35 c-11 -7 -11 -11 -1 -24 8 -9 21 -16 30 -16 14 -1
14 -2 0 -13 -23 -18 -32 -47 -34 -107 -1 -48 -4 -57 -25 -67 -14 -7 -30 -13
-37 -13 -20 0 -32 33 -29 81 3 45 44 149 59 149 5 0 15 7 24 15 8 9 18 13 21
10 4 -3 0 -10 -8 -15z m45 0 c3 -6 -1 -7 -9 -4 -18 7 -21 14 -7 14 6 0 13 -4
16 -10z"/>
<path d="M3854 1169 c-9 -16 16 -58 38 -65 21 -6 50 25 55 59 3 16 1 16 -27 2
-17 -9 -30 -11 -30 -6 0 14 -28 22 -36 10z"/>
<path d="M2642 1088 c-7 -7 -12 -18 -12 -26 0 -7 -4 -11 -9 -8 -4 3 -6 -7 -4
-22 l4 -27 -20 24 c-12 12 -18 28 -15 33 4 6 -2 8 -11 6 -39 -7 -14 -78 27
-78 14 0 18 -9 19 -42 2 -107 5 -137 12 -144 12 -13 -14 -34 -32 -26 -25 13
-76 -2 -65 -19 3 -5 0 -9 -6 -9 -13 0 -5 -46 11 -67 7 -8 21 -12 31 -10 10 3
18 0 18 -6 0 -8 3 -8 8 -2 4 6 14 11 22 13 21 5 60 43 54 53 -3 5 -1 9 4 9 10
0 12 7 14 78 2 28 5 52 8 52 7 0 46 -124 40 -128 -3 -2 3 -8 13 -13 9 -6 17
-16 17 -24 0 -7 9 -17 20 -20 11 -3 20 -10 20 -15 0 -5 7 -7 16 -3 9 3 20 0
25 -8 7 -11 9 -11 9 -1 0 7 4 10 10 7 6 -3 7 1 4 10 -4 9 -9 14 -11 11 -7 -6
-43 32 -43 45 0 21 -53 164 -63 171 -8 4 -5 13 6 26 9 10 14 22 10 25 -3 4 -1
7 5 7 7 0 12 10 12 23 1 12 7 33 15 47 13 22 14 23 15 5 1 -19 1 -19 15 -1 12
16 12 21 -2 34 -18 18 -43 25 -43 11 0 -5 -5 -9 -11 -9 -17 0 -49 -40 -49 -62
0 -10 -4 -18 -10 -18 -5 0 -9 -3 -9 -7 4 -25 -3 -44 -13 -40 -7 2 -13 9 -13
14 0 6 -3 15 -7 18 -4 4 0 22 9 39 17 31 25 75 14 77 -3 0 -15 2 -27 4 -11 3
-26 -1 -32 -7z m-66 -345 c-1 -13 5 -17 19 -15 15 2 17 1 6 -6 -7 -5 -22 -7
-32 -5 -21 6 -21 6 -13 27 8 21 22 20 20 -1z"/>
<path d="M3616 1093 c-3 -3 -1 -12 5 -19 12 -15 14 -154 2 -163 -4 -3 -9 -15
-11 -26 -2 -11 -6 -27 -9 -35 -3 -8 -7 -21 -9 -28 -3 -18 -24 -42 -36 -42 -13
0 -40 70 -34 87 3 8 1 11 -4 8 -6 -4 -10 14 -10 44 0 53 6 59 41 41 13 -8 19
-7 19 0 0 6 5 8 10 5 6 -3 10 1 10 9 0 9 4 16 9 16 5 0 8 14 7 30 0 17 -6 30
-13 30 -7 0 -12 5 -10 12 1 7 -2 12 -8 13 -5 0 -14 3 -20 6 -27 15 -95 -12
-95 -38 0 -7 -4 -13 -8 -13 -7 0 -13 -41 -13 -105 -1 -46 11 -109 21 -119 6
-6 10 -16 10 -23 0 -25 50 -65 86 -68 27 -3 40 3 64 27 31 30 58 82 66 127 3
14 8 29 11 35 12 19 3 126 -10 126 -4 0 -5 5 -2 10 3 6 1 10 -5 10 -6 0 -9 4
-6 8 6 10 -49 44 -58 35z m-56 -53 c12 -8 9 -10 -13 -10 -16 0 -26 4 -22 10 8
12 16 12 35 0z"/>
<path d="M1154 1075 c-27 -15 -38 -27 -51 -57 -8 -18 -9 -28 -2 -28 6 0 7 -4
4 -10 -3 -5 -2 -10 2 -10 5 0 16 -13 26 -29 13 -22 14 -30 5 -34 -10 -3 -10
-7 0 -19 9 -11 10 -18 2 -23 -6 -3 -8 -11 -4 -16 5 -9 15 -89 10 -89 0 0 -15
4 -31 9 -37 10 -51 -2 -49 -44 1 -16 2 -33 3 -36 1 -8 44 -25 59 -23 6 1 18 2
25 3 18 1 51 32 56 51 2 8 5 38 6 65 3 63 3 65 13 63 17 -5 58 17 79 40 22 26
36 82 20 82 -5 0 -4 7 3 15 9 11 9 15 1 15 -7 0 -10 4 -7 9 7 11 -54 72 -66
65 -4 -3 -8 -1 -8 4 0 12 -73 10 -96 -3z m56 -35 c0 -5 -8 -10 -17 -10 -15 0
-16 2 -3 10 19 12 20 12 20 0z m-50 -29 c-5 -11 -16 -23 -23 -27 -8 -5 -7 -2
2 9 7 9 10 17 5 17 -5 0 -2 5 6 10 21 14 22 13 10 -9z m91 7 c1 -7 1 -16 0
-20 0 -5 3 -8 8 -8 15 0 0 -74 -18 -87 -38 -29 -53 21 -16 53 14 12 22 23 20
26 -11 10 -14 48 -4 48 5 0 10 -6 10 -12z m-118 -288 c4 0 5 5 2 10 -3 6 -1
10 5 10 16 0 8 -21 -13 -34 -13 -8 -20 -7 -27 4 -11 18 -1 35 13 21 6 -6 15
-11 20 -11z"/>
<path d="M1448 1067 c-53 -28 -75 -98 -42 -131 17 -17 23 -44 28 -117 l4 -48
-34 1 c-65 2 -89 -69 -36 -108 21 -16 72 -18 72 -3 0 5 4 8 9 5 4 -3 19 6 32
21 13 14 17 23 9 19 -13 -7 -13 -6 0 6 8 7 14 27 14 43 -1 17 4 33 10 37 7 5
7 8 -3 8 -11 0 -11 3 -1 15 10 12 10 15 0 15 -8 0 -11 3 -7 6 3 3 14 1 24 -5
10 -6 15 -11 11 -11 -8 0 50 -120 69 -142 9 -10 20 -15 24 -12 5 3 9 1 9 -4 0
-13 38 -23 45 -12 3 4 13 6 24 3 11 -3 21 2 24 11 4 9 1 13 -7 10 -14 -5 -67
20 -67 32 -1 5 -17 42 -36 83 -31 64 -34 76 -21 85 33 25 51 80 34 104 -4 6
-5 12 -2 12 4 0 -1 13 -10 30 -16 26 -68 58 -86 52 -5 -1 -8 3 -8 9 0 8 -4 8
-13 0 -8 -6 -18 -7 -23 -2 -5 4 -26 -1 -46 -12z m94 -57 c20 -15 25 -27 23
-57 -1 -21 -4 -40 -5 -43 -1 -3 -2 -9 -1 -13 1 -5 -3 -6 -9 -2 -5 3 -10 2 -10
-3 0 -6 -9 -8 -20 -5 -24 6 -26 26 -4 48 9 9 18 29 20 45 3 21 -1 29 -17 33
-27 7 -65 -7 -77 -29 -6 -11 -11 -13 -16 -5 -4 6 0 14 8 17 9 3 13 11 9 17 -3
5 -1 7 5 3 6 -3 13 -2 17 4 10 16 50 11 77 -10z m-32 -30 c0 -5 -5 -10 -11
-10 -5 0 -7 5 -4 10 3 6 8 10 11 10 2 0 4 -4 4 -10z m-115 -249 c-3 -5 -1 -12
5 -16 5 -3 10 -2 10 4 0 6 7 8 15 4 13 -5 13 -8 -5 -20 -18 -12 -22 -12 -36 1
-15 16 -11 36 7 36 6 0 8 -4 4 -9z"/>
<path d="M3789 1063 c-13 -9 -27 -22 -31 -27 -11 -16 -10 -66 2 -66 6 0 10 -6
10 -14 0 -17 57 -27 69 -12 20 27 20 46 -1 57 -16 9 -23 8 -30 -2 -8 -11 -9
-11 -5 1 4 15 67 23 67 8 0 -3 8 -5 18 -3 9 1 20 1 24 -2 7 -4 -18 -52 -33
-63 -4 -3 -9 -12 -11 -19 -2 -8 -11 -23 -21 -33 -10 -11 -16 -26 -13 -34 3 -8
0 -13 -7 -11 -7 1 -11 -4 -9 -10 1 -7 -3 -13 -8 -13 -5 0 -10 -7 -10 -15 0 -8
-7 -15 -15 -15 -29 0 -63 -30 -58 -50 6 -23 42 -27 75 -9 11 6 23 7 27 3 3 -5
11 -10 16 -11 6 -1 27 -9 48 -17 25 -11 37 -13 37 -5 0 8 4 8 14 0 11 -9 21
-7 47 8 18 11 36 18 41 15 4 -3 8 4 8 15 0 11 5 23 10 26 13 8 13 62 0 70 -6
4 -8 10 -5 15 3 5 -4 11 -15 15 -11 3 -20 10 -20 15 0 5 -15 7 -32 5 -18 -2
-39 -4 -46 -4 -7 -1 -11 -5 -8 -10 4 -5 1 -11 -5 -13 -20 -7 -21 -65 -1 -74
36 -15 64 -11 72 10 7 16 9 17 9 4 1 -22 -35 -47 -62 -43 -40 6 -81 16 -86 21
-2 2 3 12 12 22 10 10 14 22 10 25 -3 4 -2 7 4 7 5 0 18 18 28 40 10 22 21 40
25 40 5 0 10 11 14 23 8 35 45 77 66 77 19 0 32 21 22 36 -4 5 -32 9 -62 8
-30 0 -62 3 -70 7 -36 17 -87 18 -111 2z m181 -265 c0 -6 -6 -5 -15 2 -8 7
-15 14 -15 16 0 2 7 1 15 -2 8 -4 15 -11 15 -16z"/>
<path d="M2415 1050 c-10 -11 -15 -23 -12 -27 4 -3 -7 -21 -24 -40 -30 -35
-37 -82 -13 -90 15 -5 25 35 10 41 -7 3 -7 5 2 5 7 1 11 5 7 10 -3 5 -1 12 5
16 5 3 10 0 11 -7 0 -7 2 -26 5 -43 10 -69 12 -165 3 -165 -5 0 -8 -6 -6 -12
3 -19 -41 -22 -58 -4 -14 13 -13 16 6 27 15 7 19 8 15 0 -4 -6 0 -11 8 -11 17
0 21 17 8 37 -6 9 -15 8 -40 -4 -27 -13 -32 -21 -30 -44 4 -34 37 -67 64 -65
47 5 74 20 86 46 7 16 15 27 18 25 7 -4 4 104 -3 146 -3 15 -9 35 -15 45 -11
22 -7 76 8 105 7 11 7 19 1 19 -5 0 -16 2 -23 5 -8 3 -23 -3 -33 -15z"/>
<path d="M2190 1049 c0 -5 -7 -9 -15 -9 -8 0 -19 -9 -25 -21 -11 -19 -13 -19
-29 -5 -26 23 -68 20 -96 -8 l-25 -25 -6 24 c-5 22 -36 40 -59 35 -5 -1 -15
-3 -22 -4 -19 -3 -53 -38 -47 -47 3 -5 1 -9 -5 -9 -16 0 -7 -64 12 -78 21 -16
57 -7 57 14 0 12 3 12 14 2 8 -7 10 -15 5 -16 -6 -2 -5 -10 2 -18 6 -8 7 -14
2 -14 -10 0 -16 -43 -16 -108 1 -67 34 -89 65 -43 9 14 15 28 12 33 -3 4 1 8
8 8 8 0 9 3 3 8 -13 9 -13 35 0 44 6 5 6 11 -2 19 -8 8 -9 18 -2 30 10 19 9
41 -3 49 -15 11 24 51 45 48 19 -3 22 -8 19 -48 -1 -25 -4 -65 -5 -90 -1 -25
-6 -48 -12 -52 -6 -5 -5 -8 2 -8 7 0 10 -6 7 -13 -2 -7 4 -22 16 -32 11 -10
20 -13 20 -7 0 7 7 12 15 12 8 0 15 8 16 18 0 9 3 26 5 37 3 11 6 57 7 103 3
86 19 121 50 109 15 -5 15 -56 0 -80 -10 -16 -17 -99 -14 -153 1 -28 38 -44
74 -31 22 7 25 12 16 23 -6 8 -15 11 -20 8 -5 -3 -9 -1 -9 5 0 5 5 13 10 16 6
4 8 10 5 15 -3 5 -1 29 6 52 6 24 13 57 16 73 2 17 6 36 8 43 2 6 -1 12 -8 12
-8 0 -8 3 2 9 9 6 10 11 2 15 -6 4 -9 12 -6 17 4 5 2 9 -4 9 -5 0 -11 7 -13
16 -2 12 -15 18 -40 19 -21 2 -38 -1 -38 -6z m-260 -69 c0 -5 -4 -10 -9 -10
-5 0 -18 -3 -28 -6 -16 -6 -16 -5 2 9 23 19 35 21 35 7z m-25 -41 c11 -17 2
-18 -19 -3 -17 12 -17 14 -4 14 9 0 20 -5 23 -11z"/>
<path d="M3019 1042 c-20 -14 -46 -67 -51 -105 -2 -12 -7 -28 -11 -34 -5 -8
-3 -13 3 -13 6 0 8 -5 4 -12 -4 -6 -9 -27 -10 -47 -2 -20 -5 -45 -8 -56 -2
-11 -5 -24 -5 -29 -1 -5 -4 -7 -7 -3 -8 7 -44 -24 -44 -39 0 -6 7 -17 15 -24
12 -10 18 -10 30 0 12 10 23 8 60 -9 46 -21 91 -25 135 -11 14 4 21 9 15 9 -5
1 -5 5 2 9 6 4 -7 8 -30 8 -23 1 -43 7 -45 13 -2 6 -8 9 -13 5 -5 -3 -9 0 -9
5 0 6 -10 11 -21 11 -17 0 -20 4 -15 23 4 12 8 27 9 32 2 6 5 15 8 20 2 6 4
52 4 102 0 88 6 112 19 78 3 -8 11 -14 18 -13 17 4 38 31 32 40 -3 5 0 8 6 8
7 0 5 9 -5 23 -18 25 -57 30 -86 9z m61 -44 c0 -6 -6 -5 -15 2 -8 7 -15 14
-15 16 0 2 7 1 15 -2 8 -4 15 -11 15 -16z"/>
<path d="M3320 1054 c0 -7 -10 -14 -22 -18 -21 -5 -58 -35 -83 -68 -19 -25
-45 -90 -40 -99 4 -5 1 -9 -5 -9 -6 0 -9 -4 -5 -9 3 -5 1 -12 -3 -15 -5 -3 -7
-18 -5 -33 2 -16 5 -34 5 -40 1 -7 5 -13 10 -13 5 0 7 -4 3 -9 -7 -12 47 -51
70 -51 9 0 13 4 10 10 -3 6 1 7 10 4 8 -4 22 -1 30 6 8 7 15 9 15 4 0 -5 4 -3
8 3 4 7 26 15 47 18 37 4 107 55 77 55 -8 0 -10 5 -6 13 5 8 3 8 -9 -2 -9 -7
-14 -17 -11 -22 3 -5 -2 -9 -10 -9 -20 0 -22 47 -3 75 6 11 12 36 12 55 0 26
-6 37 -24 46 -24 13 -47 3 -49 -21 0 -5 -3 -21 -7 -35 -4 -14 -8 -43 -9 -64
-1 -28 -8 -43 -23 -53 -21 -14 -64 -10 -62 5 1 4 0 9 -1 12 -7 16 -6 70 2 70
5 0 6 4 3 10 -8 13 31 99 53 117 34 27 48 32 63 21 12 -8 11 -9 -2 -5 -27 9
-43 -8 -25 -25 16 -16 57 -19 55 -4 0 5 5 12 11 16 9 6 9 13 1 28 -15 28 -47
46 -57 31 -4 -8 -9 -7 -15 2 -5 9 -9 10 -9 3z"/>
<path d="M2292 785 c-14 -31 -15 -35 -3 -35 5 0 13 9 16 20 4 11 11 18 16 15
5 -3 6 1 3 9 -9 23 -19 20 -32 -9z"/>
</g>
</svg>
